<svg width="9" height="15" viewBox="0 0 9 15" fill="none" xmlns="http://www.w3.org/2000/svg">
<g clip-path="url(#clip0)">
<path d="M6.33809 7.48827C6.17378 7.33178 6.01728 7.19484 5.86861 7.04617C4.01415 5.19563 2.15969 3.34117 0.305231 1.48671C-0.0507936 1.13068 -0.0977419 0.661197 0.187861 0.312997C0.50085 -0.0743272 1.06032 -0.105626 1.43199 0.250399C1.76454 0.571213 2.08536 0.903764 2.414 1.22849C4.27237 3.08686 6.13074 4.94523 7.98911 6.80361C8.4586 7.27309 8.4586 7.72692 7.99302 8.1925C5.82558 10.3599 3.65813 12.5274 1.49068 14.6948C1.12683 15.0587 0.653432 15.1017 0.301319 14.8044C-0.0820925 14.4797 -0.105567 13.9319 0.258283 13.5603C0.70038 13.1103 1.1503 12.6682 1.59631 12.2222C3.13387 10.6886 4.67534 9.15494 6.2129 7.61738C6.24811 7.58999 6.2755 7.55478 6.33809 7.48827Z" fill="white"/>
</g>
<defs>
<clipPath id="clip0">
<rect width="8.34116" height="15" fill="white"/>
</clipPath>
</defs>
</svg>
